# xmcd
#
# Track frame offsets:
#	150
#	12241
#	31607
#	53365
#	66250
#	79202
#	88073
#	108127
#	122315
#	136863
#	149530
#	160657
#	178926
#	196207
#	207897
#	221018
#	240620
#	255108
#
# Disc length: 3585 seconds
#
# Revision: 1
# Processed by: cddbd v1.5.2PL0 Copyright (c) Steve Scherf et al.
# Submitted via: audiograbber 1.83.01
#
DISCID=e60dff12
DTITLE=Stardust - Stardust 069
DYEAR=2007
DGENRE=Country
TTITLE0=Our Hearts Are Holding Hands  - Troy Cook and Tarcy K Houston
TTITLE1=She Broke Her Promise  - Becky Hobbs
TTITLE2=Mamas Song - Boggy Branch Band
TTITLE3=Week End Window  - Jerri Arnold
TTITLE4=Understand Your Man  - Cody Connor
TTITLE5=Still Loving You  - Charley Connor
TTITLE6=Ghost Story  - Beau Renfro
TTITLE7=Trouble  - Michelle Rae
TTITLE8=Honky Tonk Fool  - Sid Cox
TTITLE9=A Couple Of Country Girls  - Julie Taylor and Erin Hay
TTITLE10=Something On Your Mind  - Jack Blanchard and Misty Morgan
TTITLE11=Somewhere Over You  - Brenda Taylor
TTITLE12=One Day At A Time  - Mayf Nutter
TTITLE13=That´s How Much I Care - Ernie Ashworth
TTITLE14=That´s How - Susan Marshall
TTITLE15=Blues Medley - Buster Doss
TTITLE16=Prayer Bells Of Heaven  - Brazosgrass
TTITLE17=Super Heroes  - Rooster Quantrell
EXTD=
EXTT0=
EXTT1=
EXTT2=
EXTT3=
EXTT4=
EXTT5=
EXTT6=
EXTT7=
EXTT8=
EXTT9=
EXTT10=
EXTT11=
EXTT12=
EXTT13=
EXTT14=
EXTT15=
EXTT16=
EXTT17=
PLAYORDER=
